<?xml version="1.0" encoding="utf-8"?>
<!-- Generator: Adobe Illustrator 16.0.0, SVG Export Plug-In . SVG Version: 6.00 Build 0)  -->
<!DOCTYPE svg PUBLIC "-//W3C//DTD SVG 1.0//EN" "http://www.w3.org/TR/2001/REC-SVG-20010904/DTD/svg10.dtd">
<svg version="1.0" id="Layer_1" xmlns="http://www.w3.org/2000/svg" xmlns:xlink="http://www.w3.org/1999/xlink" x="0px" y="0px"
	 width="228.667px" height="228px" viewBox="0 0 228.667 228" enable-background="new 0 0 228.667 228" xml:space="preserve">
<g>
	<polygon opacity="0.06" fill="#FFFFFF" points="95.554,115.967 166.42,45.101 123.901,37.603 95.554,65.951 	"/>
	<polygon fill="#FFFFFF" points="95.554,18.475 95.555,65.948 123.9,37.603 166.419,45.101 166.419,133.566 123.9,141.064 
		123.9,87.621 95.557,115.963 95.558,160.207 180.593,145.211 180.593,33.47 	"/>
	<polygon opacity="0.15" points="95.555,18.475 95.555,160.207 109.727,157.709 109.727,20.974 	"/>
	<polygon fill="#FFFFFF" points="89.885,3 47.366,18.475 47.366,18.475 47.366,18.476 47.368,160.207 89.885,175.684 	"/>
</g>
<g>
	<g>
		<path fill="#F6F6F6" d="M3.045,219.593c0-0.468,0.068-0.907,0.207-1.319c0.137-0.411,0.338-0.769,0.598-1.071
			c0.262-0.303,0.582-0.542,0.965-0.718c0.381-0.174,0.812-0.26,1.293-0.26c0.377,0,0.705,0.049,0.98,0.148
			c0.277,0.1,0.51,0.223,0.699,0.369c0.189,0.147,0.344,0.308,0.463,0.481c0.121,0.174,0.213,0.338,0.275,0.49
			c0.062,0.154,0.105,0.286,0.131,0.397c0.023,0.111,0.035,0.174,0.035,0.186H8.295c-0.041-0.271-0.129-0.513-0.26-0.726
			c-0.133-0.213-0.297-0.395-0.496-0.545c-0.197-0.15-0.42-0.265-0.662-0.343c-0.244-0.078-0.5-0.117-0.77-0.117
			c-0.422,0-0.797,0.08-1.127,0.242c-0.33,0.163-0.609,0.382-0.838,0.653c-0.229,0.273-0.402,0.595-0.521,0.96
			c-0.121,0.367-0.18,0.756-0.18,1.171c0,0.414,0.059,0.806,0.18,1.171c0.119,0.367,0.293,0.686,0.521,0.96
			c0.229,0.273,0.508,0.49,0.838,0.652s0.705,0.242,1.127,0.242c0.311,0,0.604-0.062,0.877-0.193
			c0.275-0.129,0.514-0.299,0.717-0.512s0.367-0.46,0.49-0.739s0.195-0.568,0.213-0.87h0.396c-0.037,0.386-0.131,0.739-0.285,1.063
			c-0.152,0.325-0.348,0.604-0.584,0.843c-0.238,0.236-0.512,0.422-0.826,0.554c-0.312,0.133-0.645,0.199-0.998,0.199
			c-0.48,0-0.912-0.088-1.293-0.262c-0.383-0.175-0.703-0.413-0.965-0.716c-0.26-0.303-0.461-0.661-0.598-1.073
			C3.114,220.502,3.045,220.062,3.045,219.593z"/>
		<path fill="#F6F6F6" d="M19.061,219.593c0,0.469-0.07,0.909-0.209,1.319c-0.139,0.412-0.338,0.771-0.598,1.073
			c-0.262,0.303-0.582,0.541-0.959,0.716c-0.379,0.174-0.809,0.262-1.289,0.262s-0.912-0.088-1.293-0.262
			c-0.381-0.175-0.703-0.413-0.963-0.716c-0.262-0.303-0.461-0.661-0.6-1.073c-0.137-0.41-0.207-0.851-0.207-1.319
			c0-0.468,0.07-0.907,0.207-1.319c0.139-0.411,0.338-0.769,0.6-1.071c0.26-0.303,0.582-0.542,0.963-0.718
			c0.381-0.174,0.812-0.26,1.293-0.26s0.91,0.086,1.289,0.26c0.377,0.176,0.697,0.415,0.959,0.718
			c0.26,0.303,0.459,0.66,0.598,1.071C18.991,218.686,19.061,219.125,19.061,219.593z M13.34,219.593
			c0,0.414,0.061,0.806,0.18,1.171c0.121,0.367,0.295,0.686,0.521,0.96c0.23,0.273,0.51,0.49,0.84,0.652s0.705,0.242,1.125,0.242
			s0.795-0.08,1.121-0.242c0.328-0.162,0.605-0.379,0.834-0.652c0.229-0.274,0.402-0.593,0.521-0.96
			c0.121-0.365,0.18-0.757,0.18-1.171c0-0.415-0.059-0.804-0.18-1.171c-0.119-0.365-0.293-0.687-0.521-0.96
			c-0.229-0.271-0.506-0.49-0.834-0.653c-0.326-0.162-0.701-0.242-1.121-0.242s-0.795,0.08-1.125,0.242
			c-0.33,0.163-0.609,0.382-0.84,0.653c-0.227,0.273-0.4,0.595-0.521,0.96C13.401,218.789,13.34,219.178,13.34,219.593z"/>
		<path fill="#F6F6F6" d="M23.508,216.377h0.398v6.089h3.646v0.343h-4.045V216.377z"/>
		<path fill="#F6F6F6" d="M37.12,219.593c0,0.469-0.068,0.909-0.207,1.319c-0.139,0.412-0.338,0.771-0.6,1.073
			c-0.26,0.303-0.58,0.541-0.957,0.716c-0.381,0.174-0.809,0.262-1.289,0.262s-0.912-0.088-1.293-0.262
			c-0.381-0.175-0.703-0.413-0.963-0.716c-0.262-0.303-0.461-0.661-0.6-1.073c-0.139-0.41-0.207-0.851-0.207-1.319
			c0-0.468,0.068-0.907,0.207-1.319c0.139-0.411,0.338-0.769,0.6-1.071c0.26-0.303,0.582-0.542,0.963-0.718
			c0.381-0.174,0.812-0.26,1.293-0.26s0.908,0.086,1.289,0.26c0.377,0.176,0.697,0.415,0.957,0.718
			c0.262,0.303,0.461,0.66,0.6,1.071C37.051,218.686,37.12,219.125,37.12,219.593z M31.401,219.593c0,0.414,0.059,0.806,0.18,1.171
			c0.119,0.367,0.295,0.686,0.521,0.96c0.229,0.273,0.508,0.49,0.838,0.652c0.332,0.162,0.707,0.242,1.127,0.242
			s0.793-0.08,1.121-0.242s0.605-0.379,0.834-0.652c0.227-0.274,0.4-0.593,0.521-0.96c0.121-0.365,0.18-0.757,0.18-1.171
			c0-0.415-0.059-0.804-0.18-1.171c-0.121-0.365-0.295-0.687-0.521-0.96c-0.229-0.271-0.506-0.49-0.834-0.653
			c-0.328-0.162-0.701-0.242-1.121-0.242s-0.795,0.08-1.127,0.242c-0.33,0.163-0.609,0.382-0.838,0.653
			c-0.227,0.273-0.402,0.595-0.521,0.96C31.459,218.789,31.401,219.178,31.401,219.593z"/>
		<path fill="#F6F6F6" d="M41.569,216.377h2.686c0.281,0,0.547,0.029,0.793,0.086s0.461,0.15,0.648,0.279
			c0.186,0.13,0.332,0.3,0.436,0.509c0.105,0.211,0.158,0.471,0.158,0.784c0,0.432-0.121,0.797-0.365,1.094
			c-0.242,0.298-0.58,0.481-1.012,0.554v0.018c0.293,0.037,0.525,0.115,0.697,0.234c0.17,0.121,0.299,0.268,0.383,0.442
			c0.084,0.174,0.139,0.367,0.162,0.576c0.023,0.211,0.035,0.42,0.035,0.632c0,0.125,0,0.248,0,0.367
			c0,0.121,0.006,0.234,0.02,0.338c0.012,0.105,0.031,0.203,0.059,0.293c0.025,0.091,0.062,0.167,0.111,0.226h-0.441
			c-0.084-0.151-0.131-0.325-0.139-0.526c-0.01-0.201-0.014-0.41-0.014-0.627c0-0.216-0.01-0.431-0.027-0.644
			s-0.076-0.404-0.172-0.572c-0.096-0.169-0.246-0.304-0.453-0.405s-0.502-0.152-0.879-0.152h-2.289v2.927h-0.396V216.377z
			 M44.254,219.54c0.232,0,0.451-0.029,0.652-0.086s0.375-0.146,0.518-0.266c0.145-0.122,0.258-0.274,0.344-0.46
			c0.082-0.186,0.125-0.408,0.125-0.666c0-0.241-0.045-0.446-0.135-0.618c-0.09-0.17-0.211-0.311-0.359-0.418
			c-0.15-0.107-0.324-0.186-0.523-0.235c-0.199-0.047-0.406-0.072-0.621-0.072h-2.289v2.821H44.254z"/>
		<path fill="#F6F6F6" d="M68.42,216.225h0.367l-2.863,6.738h-0.371L68.42,216.225z"/>
		<path fill="#F6F6F6" d="M87.991,219.593c0-0.468,0.068-0.907,0.207-1.319c0.137-0.411,0.338-0.769,0.598-1.071
			c0.262-0.303,0.584-0.542,0.965-0.718c0.381-0.174,0.812-0.26,1.291-0.26c0.379,0,0.707,0.049,0.984,0.148
			c0.275,0.1,0.508,0.223,0.697,0.369c0.189,0.147,0.344,0.308,0.463,0.481c0.121,0.174,0.211,0.338,0.275,0.49
			c0.062,0.154,0.105,0.286,0.131,0.397c0.023,0.111,0.035,0.174,0.035,0.186h-0.396c-0.041-0.271-0.129-0.513-0.26-0.726
			c-0.133-0.213-0.299-0.395-0.496-0.545s-0.418-0.265-0.662-0.343s-0.5-0.117-0.771-0.117c-0.42,0-0.795,0.08-1.125,0.242
			c-0.33,0.163-0.609,0.382-0.838,0.653c-0.229,0.273-0.402,0.595-0.521,0.96c-0.121,0.367-0.18,0.756-0.18,1.171
			c0,0.414,0.059,0.806,0.18,1.171c0.119,0.367,0.293,0.686,0.521,0.96c0.229,0.273,0.508,0.49,0.838,0.652s0.705,0.242,1.125,0.242
			c0.312,0,0.607-0.062,0.881-0.193c0.271-0.129,0.51-0.299,0.715-0.512c0.203-0.213,0.367-0.46,0.49-0.739s0.193-0.568,0.213-0.87
			h0.395c-0.035,0.386-0.131,0.739-0.283,1.063c-0.152,0.325-0.348,0.604-0.584,0.843c-0.238,0.236-0.514,0.422-0.824,0.554
			c-0.312,0.133-0.646,0.199-1.002,0.199c-0.479,0-0.91-0.088-1.291-0.262c-0.381-0.175-0.703-0.413-0.965-0.716
			c-0.26-0.303-0.461-0.661-0.598-1.073C88.059,220.502,87.991,220.062,87.991,219.593z"/>
		<path fill="#F6F6F6" d="M104.006,219.593c0,0.469-0.07,0.909-0.207,1.319c-0.139,0.412-0.338,0.771-0.602,1.073
			c-0.26,0.303-0.58,0.541-0.957,0.716c-0.379,0.174-0.809,0.262-1.289,0.262s-0.912-0.088-1.293-0.262
			c-0.381-0.175-0.701-0.413-0.963-0.716s-0.461-0.661-0.6-1.073c-0.139-0.41-0.207-0.851-0.207-1.319
			c0-0.468,0.068-0.907,0.207-1.319c0.139-0.411,0.338-0.769,0.6-1.071s0.582-0.542,0.963-0.718c0.381-0.174,0.812-0.26,1.293-0.26
			s0.91,0.086,1.289,0.26c0.377,0.176,0.697,0.415,0.957,0.718c0.264,0.303,0.463,0.66,0.602,1.071
			C103.936,218.686,104.006,219.125,104.006,219.593z M98.286,219.593c0,0.414,0.059,0.806,0.18,1.171
			c0.119,0.367,0.295,0.686,0.523,0.96c0.229,0.273,0.506,0.49,0.836,0.652c0.332,0.162,0.707,0.242,1.127,0.242
			s0.795-0.08,1.121-0.242c0.328-0.162,0.605-0.379,0.834-0.652c0.227-0.274,0.4-0.593,0.523-0.96
			c0.119-0.365,0.18-0.757,0.18-1.171c0-0.415-0.061-0.804-0.18-1.171c-0.123-0.365-0.297-0.687-0.523-0.96
			c-0.229-0.271-0.506-0.49-0.834-0.653c-0.326-0.162-0.701-0.242-1.121-0.242s-0.795,0.08-1.127,0.242
			c-0.33,0.163-0.607,0.382-0.836,0.653c-0.229,0.273-0.404,0.595-0.523,0.96C98.344,218.789,98.286,219.178,98.286,219.593z"/>
		<path fill="#F6F6F6" d="M108.456,216.377h2.107c0.576,0,1.055,0.09,1.436,0.27c0.381,0.182,0.686,0.421,0.916,0.722
			c0.229,0.301,0.389,0.644,0.48,1.026c0.094,0.385,0.141,0.781,0.141,1.19c0,0.455-0.059,0.88-0.176,1.274
			c-0.117,0.393-0.299,0.733-0.545,1.022c-0.248,0.287-0.559,0.514-0.932,0.68c-0.377,0.165-0.822,0.247-1.338,0.247h-2.09V216.377z
			 M110.581,222.466c0.301,0,0.602-0.047,0.906-0.139c0.303-0.094,0.576-0.25,0.822-0.469s0.445-0.515,0.602-0.882
			c0.152-0.369,0.229-0.835,0.229-1.392c0-0.44-0.043-0.815-0.131-1.126c-0.086-0.312-0.201-0.577-0.344-0.79
			c-0.141-0.213-0.303-0.381-0.484-0.504c-0.184-0.123-0.373-0.217-0.568-0.283c-0.195-0.067-0.391-0.11-0.584-0.132
			c-0.195-0.02-0.371-0.031-0.527-0.031h-1.648v5.747H110.581z"/>
		<path fill="#F6F6F6" d="M118.067,216.377h4.324v0.342h-3.93v2.577h3.693v0.342h-3.693v2.828h3.975v0.343h-4.369V216.377z"/>
		<path fill="#F6F6F6" d="M144.284,216.225h0.369l-2.863,6.738h-0.369L144.284,216.225z"/>
		<path fill="#F6F6F6" d="M163.856,219.593c0-0.468,0.068-0.907,0.205-1.319c0.139-0.411,0.338-0.769,0.602-1.071
			c0.262-0.303,0.582-0.542,0.963-0.718c0.381-0.174,0.812-0.26,1.293-0.26c0.379,0,0.705,0.049,0.982,0.148
			c0.275,0.1,0.508,0.223,0.697,0.369c0.189,0.147,0.344,0.308,0.463,0.481c0.121,0.174,0.213,0.338,0.277,0.49
			c0.062,0.154,0.105,0.286,0.129,0.397c0.025,0.111,0.037,0.174,0.037,0.186h-0.398c-0.041-0.271-0.129-0.513-0.262-0.726
			c-0.131-0.213-0.297-0.395-0.494-0.545s-0.418-0.265-0.662-0.343c-0.242-0.078-0.498-0.117-0.77-0.117
			c-0.422,0-0.797,0.08-1.127,0.242c-0.33,0.163-0.607,0.382-0.836,0.653c-0.229,0.273-0.402,0.595-0.523,0.96
			c-0.121,0.367-0.182,0.756-0.182,1.171c0,0.414,0.061,0.806,0.182,1.171c0.121,0.367,0.295,0.686,0.523,0.96
			c0.229,0.273,0.506,0.49,0.836,0.652s0.705,0.242,1.127,0.242c0.312,0,0.605-0.062,0.879-0.193
			c0.271-0.129,0.512-0.299,0.715-0.512s0.367-0.46,0.49-0.739c0.125-0.279,0.195-0.568,0.213-0.87h0.396
			c-0.035,0.386-0.131,0.739-0.283,1.063c-0.152,0.325-0.35,0.604-0.588,0.843c-0.236,0.236-0.51,0.422-0.822,0.554
			c-0.312,0.133-0.645,0.199-1,0.199c-0.48,0-0.912-0.088-1.293-0.262c-0.381-0.175-0.701-0.413-0.963-0.716
			c-0.264-0.303-0.463-0.661-0.602-1.073C163.924,220.502,163.856,220.062,163.856,219.593z"/>
		<path fill="#F6F6F6" d="M179.87,219.593c0,0.469-0.068,0.909-0.207,1.319c-0.137,0.412-0.336,0.771-0.598,1.073
			s-0.582,0.541-0.961,0.716c-0.377,0.174-0.807,0.262-1.287,0.262c-0.479,0-0.912-0.088-1.293-0.262
			c-0.381-0.175-0.701-0.413-0.963-0.716s-0.461-0.661-0.598-1.073c-0.139-0.41-0.209-0.851-0.209-1.319
			c0-0.468,0.07-0.907,0.209-1.319c0.137-0.411,0.336-0.769,0.598-1.071s0.582-0.542,0.963-0.718c0.381-0.174,0.814-0.26,1.293-0.26
			c0.48,0,0.91,0.086,1.287,0.26c0.379,0.176,0.699,0.415,0.961,0.718s0.461,0.66,0.598,1.071
			C179.801,218.686,179.87,219.125,179.87,219.593z M174.151,219.593c0,0.414,0.061,0.806,0.182,1.171
			c0.119,0.367,0.293,0.686,0.521,0.96c0.227,0.273,0.506,0.49,0.836,0.652s0.707,0.242,1.127,0.242s0.795-0.08,1.121-0.242
			s0.605-0.379,0.834-0.652c0.229-0.274,0.402-0.593,0.523-0.96c0.119-0.365,0.18-0.757,0.18-1.171c0-0.415-0.061-0.804-0.18-1.171
			c-0.121-0.365-0.295-0.687-0.523-0.96c-0.229-0.271-0.508-0.49-0.834-0.653c-0.326-0.162-0.701-0.242-1.121-0.242
			s-0.797,0.08-1.127,0.242c-0.33,0.163-0.609,0.382-0.836,0.653c-0.229,0.273-0.402,0.595-0.521,0.96
			C174.211,218.789,174.151,219.178,174.151,219.593z"/>
		<path fill="#F6F6F6" d="M184.321,216.377h0.494l4.064,5.899h0.018v-5.899h0.396v6.432h-0.469l-4.09-5.944h-0.018v5.944h-0.396
			V216.377z"/>
		<path fill="#F6F6F6" d="M193.336,216.719v-0.342h4.928v0.342h-2.27v6.09h-0.396v-6.09H193.336z"/>
		<path fill="#F6F6F6" d="M202.309,216.377h4.322v0.342h-3.926v2.577h3.691v0.342h-3.691v2.828h3.973v0.343h-4.369V216.377z"/>
		<path fill="#F6F6F6" d="M210.956,216.377h0.496l4.061,5.899h0.018v-5.899h0.396v6.432h-0.467l-4.088-5.944h-0.021v5.944h-0.395
			V216.377z"/>
		<path fill="#F6F6F6" d="M219.971,216.719v-0.342h4.928v0.342h-2.27v6.09h-0.396v-6.09H219.971z"/>
	</g>
	<g>
		<path fill="#F6F6F6" d="M6.5,190.671v15.708H3.047v-15.708H6.5z"/>
		<path fill="#F6F6F6" d="M18.469,190.671l6.555,10.538h0.045v-10.538h3.234v15.708h-3.455l-6.533-10.516H18.27v10.516h-3.234
			v-15.708H18.469z"/>
		<path fill="#F6F6F6" d="M40.292,190.671v6.028h6.359v-6.028h3.453v15.708h-3.453v-6.776h-6.359v6.776h-3.453v-15.708H40.292z"/>
		<path fill="#F6F6F6" d="M58.487,195.324c0.352-1.005,0.857-1.881,1.518-2.629s1.471-1.335,2.432-1.761
			c0.959-0.425,2.041-0.638,3.244-0.638c1.217,0,2.303,0.213,3.256,0.638c0.953,0.426,1.76,1.013,2.42,1.761
			s1.166,1.624,1.518,2.629s0.529,2.094,0.529,3.267c0,1.145-0.178,2.211-0.529,3.201s-0.857,1.852-1.518,2.585
			s-1.467,1.309-2.42,1.727s-2.039,0.627-3.256,0.627c-1.203,0-2.285-0.209-3.244-0.627c-0.961-0.418-1.771-0.993-2.432-1.727
			s-1.166-1.595-1.518-2.585c-0.354-0.99-0.529-2.057-0.529-3.201C57.958,197.418,58.133,196.329,58.487,195.324z M61.643,200.516
			c0.154,0.624,0.4,1.185,0.736,1.684c0.338,0.498,0.777,0.898,1.32,1.198c0.543,0.301,1.203,0.451,1.98,0.451
			s1.438-0.15,1.98-0.451c0.541-0.3,0.982-0.7,1.32-1.198c0.336-0.499,0.582-1.06,0.736-1.684c0.154-0.623,0.23-1.265,0.23-1.925
			c0-0.689-0.076-1.356-0.23-2.002s-0.4-1.221-0.736-1.727c-0.338-0.507-0.779-0.909-1.32-1.21c-0.543-0.301-1.203-0.451-1.98-0.451
			s-1.438,0.15-1.98,0.451s-0.982,0.703-1.32,1.21c-0.336,0.506-0.582,1.081-0.736,1.727s-0.23,1.312-0.23,2.002
			C61.413,199.251,61.489,199.893,61.643,200.516z"/>
		<path fill="#F6F6F6" d="M92.807,205.18c-1.189,1.034-2.832,1.551-4.93,1.551c-2.125,0-3.771-0.513-4.938-1.54
			c-1.166-1.026-1.75-2.61-1.75-4.752v-9.768h3.455v9.768c0,0.426,0.035,0.844,0.109,1.255c0.072,0.41,0.227,0.773,0.461,1.089
			c0.236,0.315,0.562,0.571,0.98,0.77s0.979,0.297,1.682,0.297c1.232,0,2.084-0.274,2.553-0.825c0.469-0.55,0.705-1.411,0.705-2.585
			v-9.768h3.453v9.768C94.588,202.565,93.995,204.146,92.807,205.18z"/>
		<path fill="#F6F6F6" d="M105.698,202.507c0.191,0.367,0.443,0.664,0.76,0.891c0.314,0.228,0.686,0.396,1.111,0.507
			c0.424,0.109,0.865,0.165,1.318,0.165c0.309,0,0.639-0.025,0.99-0.077c0.354-0.052,0.682-0.15,0.99-0.297s0.564-0.349,0.77-0.605
			s0.309-0.583,0.309-0.979c0-0.426-0.135-0.771-0.406-1.034c-0.271-0.265-0.627-0.484-1.068-0.66
			c-0.439-0.176-0.938-0.33-1.496-0.462c-0.557-0.132-1.121-0.278-1.693-0.44c-0.586-0.146-1.158-0.326-1.715-0.539
			c-0.559-0.212-1.057-0.487-1.496-0.824c-0.441-0.338-0.797-0.76-1.068-1.266s-0.406-1.118-0.406-1.837
			c0-0.807,0.172-1.507,0.518-2.101c0.344-0.595,0.795-1.089,1.352-1.485c0.559-0.396,1.189-0.689,1.893-0.88
			c0.705-0.19,1.408-0.286,2.111-0.286c0.822,0,1.609,0.092,2.365,0.275s1.428,0.48,2.014,0.891
			c0.586,0.411,1.053,0.935,1.396,1.573c0.346,0.638,0.518,1.411,0.518,2.32h-3.344c-0.029-0.469-0.129-0.857-0.297-1.166
			c-0.17-0.308-0.393-0.55-0.672-0.726s-0.598-0.301-0.957-0.374s-0.752-0.11-1.176-0.11c-0.279,0-0.559,0.03-0.836,0.089
			c-0.279,0.059-0.533,0.161-0.76,0.308c-0.229,0.146-0.414,0.33-0.561,0.55s-0.221,0.499-0.221,0.836
			c0,0.309,0.059,0.558,0.176,0.748c0.117,0.191,0.348,0.367,0.693,0.528c0.344,0.161,0.82,0.322,1.43,0.483
			c0.609,0.162,1.404,0.367,2.387,0.616c0.293,0.059,0.701,0.165,1.221,0.319c0.521,0.154,1.039,0.399,1.553,0.737
			c0.512,0.337,0.957,0.788,1.33,1.353c0.375,0.564,0.561,1.287,0.561,2.167c0,0.719-0.139,1.386-0.418,2.002
			s-0.693,1.147-1.242,1.595c-0.551,0.448-1.232,0.796-2.047,1.045c-0.814,0.25-1.756,0.374-2.826,0.374
			c-0.865,0-1.705-0.106-2.52-0.318c-0.814-0.213-1.533-0.547-2.156-1.001c-0.623-0.455-1.117-1.034-1.484-1.738
			s-0.543-1.54-0.527-2.508h3.344C105.413,201.693,105.506,202.141,105.698,202.507z"/>
		<path fill="#F6F6F6" d="M134.583,190.671v2.904h-8.293v3.365h7.611v2.685h-7.611v3.85h8.471v2.904h-11.926v-15.708H134.583z"/>
		<path fill="#F6F6F6" d="M142.459,190.671h1.387l6.137,14.63h0.045l6.072-14.63h1.385v15.708h-0.967v-14.52h-0.045l-5.984,14.52
			h-0.967l-6.051-14.52h-0.045v14.52h-0.967V190.671z"/>
		<path fill="#F6F6F6" d="M165.756,190.671h10.561v0.836h-9.592v6.292h9.02v0.836h-9.02v6.908h9.701v0.836h-10.67V190.671z"/>
		<path fill="#F6F6F6" d="M183.577,190.671h5.148c1.408,0,2.578,0.22,3.51,0.66c0.932,0.439,1.676,1.026,2.232,1.76
			s0.949,1.569,1.178,2.508c0.227,0.939,0.34,1.907,0.34,2.904c0,1.115-0.143,2.152-0.428,3.113
			c-0.287,0.961-0.73,1.793-1.332,2.497s-1.359,1.258-2.277,1.66c-0.916,0.404-2.006,0.605-3.266,0.605h-5.105V190.671z
			 M188.77,205.543c0.732,0,1.469-0.113,2.211-0.341c0.74-0.228,1.41-0.608,2.012-1.145c0.602-0.535,1.09-1.254,1.463-2.155
			c0.375-0.902,0.562-2.035,0.562-3.399c0-1.07-0.107-1.987-0.32-2.75s-0.49-1.404-0.836-1.925c-0.344-0.521-0.74-0.932-1.188-1.232
			c-0.447-0.3-0.91-0.531-1.387-0.692c-0.477-0.162-0.953-0.268-1.43-0.319s-0.906-0.077-1.287-0.077h-4.025v14.036H188.77z"/>
		<path fill="#F6F6F6" d="M203.75,190.671h0.969v15.708h-0.969V190.671z"/>
		<path fill="#F6F6F6" d="M217.655,190.671h1.057l6.203,15.708h-1.033l-1.98-5.038h-7.523l-2.002,5.038h-1.033L217.655,190.671z
			 M221.594,200.505l-3.367-8.888h-0.043l-3.498,8.888H221.594z"/>
	</g>
</g>
</svg>
