<?xml version="1.0" encoding="utf-8"?>
<!-- Generator: Adobe Illustrator 16.0.0, SVG Export Plug-In . SVG Version: 6.00 Build 0)  -->
<!DOCTYPE svg PUBLIC "-//W3C//DTD SVG 1.1 Tiny//EN" "http://www.w3.org/Graphics/SVG/1.1/DTD/svg11-tiny.dtd">
<svg version="1.1" baseProfile="tiny" id="Layer_1" xmlns="http://www.w3.org/2000/svg" xmlns:xlink="http://www.w3.org/1999/xlink"
	 x="0px" y="0px" width="27.412px" height="27.412px" viewBox="0 0 27.412 27.412" xml:space="preserve">
<path fill="#B3B5B6" d="M19.286,9.478h-3.799V6.986c0-0.935,0.621-1.153,1.059-1.153h2.68V1.721l-3.691-0.015
	c-4.098,0-5.029,3.067-5.029,5.03v2.741H8.133v4.237h2.372V25.71h4.982V13.715h3.363L19.286,9.478z"/>
<path display="none" fill="#B3B5B6" d="M5.758,9.835H0.183v15.873h5.575V9.835z M5.758,4.209C5.725,2.789,4.648,1.708,2.901,1.708
	c-1.748,0-2.89,1.081-2.89,2.502c0,1.389,1.108,2.502,2.822,2.502h0.033C4.648,6.711,5.758,5.598,5.758,4.209 M14.851,25.708v-9.045
	c0-0.484,0.04-0.967,0.202-1.312c0.44-0.969,1.447-1.969,3.138-1.969c2.213,0,3.601,1.105,3.601,3.281v9.045h5.613v-9.287
	c0-4.973-3.018-7.288-7.042-7.288c-3.3,0-4.75,1.624-5.553,2.73l0.041-2.124H9.25c0.08,1.52,0,15.969,0,15.969H14.851z"/>
<path display="none" fill="#B3B5B6" d="M13.707,25.71c-6.619,0-12-5.389-12-12.005c0-6.615,5.382-12,12-12
	c6.617,0,12.004,5.384,12.004,12C25.71,20.321,20.324,25.71,13.707,25.71 M23.83,15.349c-0.35-0.112-3.174-0.954-6.387-0.438
	c1.342,3.684,1.887,6.685,1.99,7.31C21.734,20.663,23.373,18.201,23.83,15.349 M17.712,23.159c-0.154-0.899-0.75-4.035-2.19-7.773
	l-0.067,0.022c-5.781,2.015-7.856,6.023-8.041,6.402c1.738,1.356,3.922,2.165,6.292,2.165C15.125,23.975,16.48,23.684,17.712,23.159
	 M6.091,20.575c0.232-0.397,3.045-5.055,8.333-6.765c0.132-0.045,0.268-0.084,0.402-0.122c-0.257-0.582-0.537-1.165-0.831-1.739
	c-5.119,1.532-10.085,1.469-10.534,1.459c-0.003,0.105-0.006,0.207-0.006,0.313C3.455,16.354,4.453,18.757,6.091,20.575
	 M3.672,11.621c0.458,0.008,4.682,0.026,9.477-1.247c-1.698-3.02-3.53-5.558-3.802-5.927C6.48,5.798,4.337,8.44,3.672,11.621
	 M11.303,3.756c0.284,0.379,2.146,2.916,3.826,6c3.646-1.365,5.189-3.439,5.375-3.702c-1.811-1.605-4.194-2.582-6.797-2.582
	C12.878,3.472,12.074,3.57,11.303,3.756 M21.642,7.239c-0.217,0.292-1.934,2.494-5.726,4.042c0.238,0.488,0.465,0.984,0.681,1.484
	c0.074,0.176,0.148,0.353,0.221,0.529c3.412-0.43,6.801,0.259,7.141,0.329C23.935,11.204,23.07,8.983,21.642,7.239"/>
<g>
</g>
<g>
</g>
<g>
</g>
<g>
</g>
<g>
</g>
<g>
</g>
</svg>
