<?xml version="1.0" encoding="utf-8"?>
<!-- Generator: Adobe Illustrator 16.0.0, SVG Export Plug-In . SVG Version: 6.00 Build 0)  -->
<!DOCTYPE svg PUBLIC "-//W3C//DTD SVG 1.1 Tiny//EN" "http://www.w3.org/Graphics/SVG/1.1/DTD/svg11-tiny.dtd">
<svg version="1.1" baseProfile="tiny" xmlns="http://www.w3.org/2000/svg" xmlns:xlink="http://www.w3.org/1999/xlink" x="0px"
	 y="0px" width="60px" height="60px" viewBox="0 0 60 60" xml:space="preserve">
<g id="Layer_1">
	<path fill="#E9474D" d="M56,5.022c1.104,0,2,1.013,2,2.256v35.487c0,1.243-0.896,2.255-2,2.255H4c-1.103,0-2-1.012-2-2.255V7.278
		c0-1.243,0.897-2.256,2-2.256H56 M56,3.022H4c-2.209,0-4,1.905-4,4.256v35.487c0,2.351,1.791,4.255,4,4.255h52
		c2.209,0,4-1.904,4-4.255V7.278C60,4.928,58.209,3.022,56,3.022"/>
	<path fill="#E9474D" d="M54,37.074H6V9.023h48V37.074z M56,7.023H4v32.051h52V7.023z"/>
	<path fill="#E9474D" d="M42.037,53.021c0.531,0,0.963,0.449,0.963,1s-0.432,1-0.963,1H17.963c-0.531,0-0.963-0.449-0.963-1
		s0.432-1,0.963-1H42.037 M42.037,51.021H17.963c-1.637,0-2.963,1.343-2.963,3s1.326,3,2.963,3h24.074c1.636,0,2.963-1.343,2.963-3
		S43.673,51.021,42.037,51.021"/>
	<path fill="#E9474D" d="M31,51.021h-2v-4h2V51.021z M33,45.021h-6v8h6V45.021z"/>
</g>
<g id="Layer_3" display="none">
	<path display="inline" fill="#E9474D" d="M60,15.037c0-2.054-1.385-4.043-3.636-4.043H4.515c-2.251,0-4.517,1.989-4.517,4.043
		v30.558c0,2.054,2.266,3.394,4.517,3.394h51.849c2.251,0,3.636-1.34,3.636-3.394V15.037z M58,15.037v29.994
		c0,0.236,0.092,0.475,0.012,0.706L37.141,30.034l20.814-15.689C58.051,14.548,58,14.778,58,15.037 M2.237,45.654
		c-0.055-0.205-0.238-0.415-0.238-0.623V15.037c0-0.227,0.188-0.428,0.252-0.613l20.818,15.61L2.237,45.654z M4.253,12.994h51.92
		L31.212,31.871c-0.521,0.394-1.476,0.312-1.998-0.081L4.253,12.994z M4.213,46.988c-0.197,0-0.381,0.114-0.556,0.046l21.222-15.833
		l3.135,2.39c0.616,0.463,1.407,0.715,2.2,0.715c0.79,0,1.582-0.222,2.199-0.684l3.134-2.345l21.228,15.757
		c-0.181,0.066-0.367-0.047-0.56-0.047H4.213z"/>
</g>
<g id="Layer_2" display="none">
	<path display="inline" fill="#E9474D" d="M39.042,0.123L39.131,0h-2H12.133C9.924,0,7.955,2.036,7.955,4.245v52.003
		c0,2.209,1.97,3.755,4.179,3.755h35.998c2.211,0,3.821-1.546,3.821-3.755V13.246L39.042,0.123z M38.952,3.073L49.303,13h-9.172
		c-0.551,0-1.179-0.204-1.179-0.755V3.073z M49.952,56.248c0,1.103-0.718,1.755-1.821,1.755H12.133
		c-1.102,0-2.179-0.652-2.179-1.755V4.245C9.955,3.142,11.032,2,12.133,2h24.819v10.246c0,1.656,1.522,2.755,3.179,2.755h9.821
		V56.248z"/>
	<path display="inline" fill="#E9474D" d="M41.131,36.002H19.134c-0.553,0-1,0.447-1,1s0.447,1.001,1,1.001h21.997
		c0.554,0,1-0.448,1-1.001S41.685,36.002,41.131,36.002"/>
	<path display="inline" fill="#E9474D" d="M41.131,42.003H19.134c-0.553,0-1,0.447-1,1s0.447,1,1,1h21.997c0.554,0,1-0.447,1-1
		S41.685,42.003,41.131,42.003"/>
	<path display="inline" fill="#E9474D" d="M41.131,48.003H19.134c-0.553,0-1,0.447-1,1s0.447,1,1,1h21.997c0.554,0,1-0.447,1-1
		S41.685,48.003,41.131,48.003"/>
	<path display="inline" fill="#E9474D" d="M41.952,26.001c0-1.105-0.896-2-2-2H19.955c-1.104,0-2,0.895-2,2v4c0,1.105,0.896,2,2,2
		h19.997c1.104,0,2-0.895,2-2V26.001z M39.952,30.001H19.955v-4h19.997V30.001z"/>
</g>
</svg>
