<?xml version="1.0" encoding="utf-8"?>
<!-- Generator: Adobe Illustrator 20.1.0, SVG Export Plug-In . SVG Version: 6.00 Build 0)  -->
<svg version="1.1" id="Layer_1" xmlns="http://www.w3.org/2000/svg" xmlns:xlink="http://www.w3.org/1999/xlink" x="0px" y="0px"
	 viewBox="0 0 242.2 235.6" style="enable-background:new 0 0 242.2 235.6;" xml:space="preserve">
<style type="text/css">
	.st0{fill:#EA474D;}
	.st1{fill:#3B3A3C;}
	.st2{fill:#FFFFFF;}
</style>
<g>
	<g>
		<path class="st0" d="M19.4,201c0,4.5-3.4,7.2-7.7,7.2H0.1v-27h10.6c4.3,0,7.8,2.9,7.8,7.3c0,2.9-1.4,4.9-3.6,6
			C17.6,195.5,19.4,197.7,19.4,201z M10.2,185.3H4.5v7.5h5.8c2.1,0,3.9-1.7,3.9-3.8C14.1,186.9,12.3,185.3,10.2,185.3z M15,200.4
			c0-2.1-1.8-3.8-3.9-3.8H4.5v7.5h6.6C13.2,204.1,15,202.6,15,200.4z"/>
		<path class="st0" d="M40.3,202.5h-11l-1.9,5.7h-4.8l9.8-27h4.9l9.8,27h-4.8L40.3,202.5z M39.1,198.6L34.8,186l-4.2,12.6H39.1z"/>
		<path class="st0" d="M71.7,208.2h-4.9l-7.2-11.3h-3.7v11.3h-4.4v-27h10.6c4.4,0,7.8,3.5,7.8,7.9c0,3.6-2.5,6.6-5.8,7.3L71.7,208.2
			z M61.5,193.1c2.3,0,4-1.6,4-3.9s-1.7-3.9-4-3.9h-5.6v7.7H61.5z"/>
		<path class="st0" d="M92.4,185.3h-7.2v22.9h-4.4v-22.9h-7.2v-4.1h18.7V185.3z"/>
		<path class="st0" d="M107.9,202.8l3.8-2.3c0.9,2.3,3,3.8,5.8,3.8c2.5,0,4.4-1.3,4.4-3.5c0-5.7-12.8-3.5-12.8-12.5
			c0-4.9,3.8-7.5,8.1-7.5c3.2,0,6,1.5,7.7,3.6l-3.1,2.8c-1.2-1.5-2.8-2.3-4.6-2.3c-2,0-3.6,1-3.6,3.1c0,5.5,12.8,3.2,12.8,12.8
			c0,4.9-4,7.7-8.8,7.7C113,208.6,109.4,206.2,107.9,202.8z"/>
		<path class="st0" d="M155.8,181.2v27h-4.4l-14.9-20.1v20.1h-4.4v-27h4.4l15,20v-20H155.8z"/>
		<path class="st0" d="M162.5,194.7c0-7.6,6.2-13.9,13.9-13.9c7.7,0,13.9,6.2,13.9,13.9c0,7.7-6.2,13.9-13.9,13.9
			C168.7,208.6,162.5,202.4,162.5,194.7z M185.9,194.7c0-5.4-4.1-9.5-9.5-9.5c-5.3,0-9.5,4.1-9.5,9.5c0,5.4,4.2,9.5,9.5,9.5
			C181.8,204.2,185.9,200.1,185.9,194.7z"/>
		<path class="st0" d="M201.6,185.2v7.5h9.6v4h-9.6v7.5h11.1v4h-15.5v-27h15.5v4H201.6z"/>
		<path class="st0" d="M225.6,195.5h-1.4v12.7h-4.4v-27h4.4v10.3h1.5l9.8-10.3h5.8l-12,12.2l12.9,14.8h-6L225.6,195.5z"/>
	</g>
	<g>
		<path class="st1" d="M35.4,225h2.7c2.9,0,5.3,2.3,5.3,5.3s-2.3,5.3-5.3,5.3h-2.7V225z M38.1,234.6c2.5,0,4.4-1.9,4.4-4.4
			c0-2.5-2-4.4-4.4-4.4h-1.9v8.8H38.1z"/>
		<path class="st1" d="M48.6,225h0.8v10.5h-0.8V225z"/>
		<path class="st1" d="M65.5,230v0.2c0,3-2.4,5.4-5.4,5.4c-3,0-5.4-2.4-5.4-5.4c0-3,2.4-5.4,5.4-5.4c2,0,3.7,1.1,4.7,2.7l-0.7,0.4
			c-0.8-1.4-2.2-2.3-3.9-2.3c-2.5,0-4.6,2-4.6,4.5c0,2.5,2,4.6,4.6,4.6c2.3,0,4.2-1.7,4.5-4H60V230H65.5z"/>
		<path class="st1" d="M70.7,225h0.8v10.5h-0.8V225z"/>
		<path class="st1" d="M82.8,225.8h-3v9.7H79v-9.7h-3V225h6.8V225.8z"/>
		<path class="st1" d="M92.4,232.9h-4.9l-0.9,2.5h-0.9l3.8-10.5h0.9l3.8,10.5h-0.9L92.4,232.9z M92.1,232.1l-2.2-6.2l-2.2,6.2H92.1z
			"/>
		<path class="st1" d="M103.3,234.6v0.8h-4.8V225h0.8v9.7H103.3z"/>
		<path class="st1" d="M114.7,225h2.7c2.9,0,5.3,2.3,5.3,5.3s-2.3,5.3-5.3,5.3h-2.7V225z M117.4,234.6c2.5,0,4.4-1.9,4.4-4.4
			c0-2.5-2-4.4-4.4-4.4h-1.9v8.8H117.4z"/>
		<path class="st1" d="M128.8,225.8v4h4.2v0.8h-4.2v4h4.8v0.8h-5.6V225h5.6v0.8H128.8z"/>
		<path class="st1" d="M138,233.5l0.8-0.4c0.4,1,1.3,1.7,2.6,1.7c1.3,0,2.3-0.7,2.3-1.9c0-2.8-5.2-2-5.2-5.3c0-1.7,1.3-2.7,2.9-2.7
			c1.2,0,2.2,0.6,2.7,1.3l-0.7,0.5c-0.4-0.6-1.1-1-2-1c-1.1,0-2,0.6-2,1.8c0,2.7,5.2,1.9,5.2,5.4c0,1.8-1.5,2.8-3.2,2.8
			C139.8,235.6,138.5,234.7,138,233.5z"/>
		<path class="st1" d="M149.4,225h0.8v10.5h-0.8V225z"/>
		<path class="st1" d="M166.3,230v0.2c0,3-2.4,5.4-5.4,5.4c-3,0-5.4-2.4-5.4-5.4c0-3,2.4-5.4,5.4-5.4c2,0,3.7,1.1,4.7,2.7l-0.7,0.4
			c-0.8-1.4-2.2-2.3-3.9-2.3c-2.5,0-4.5,2-4.5,4.5c0,2.5,2,4.6,4.5,4.6c2.3,0,4.2-1.7,4.5-4h-4.5V230H166.3z"/>
		<path class="st1" d="M179.8,225v10.5h-0.7l-6.8-9v9h-0.8V225h0.7l6.8,9v-9H179.8z"/>
		<path class="st1" d="M186.3,225.8v4h4.2v0.8h-4.2v4h4.8v0.8h-5.6V225h5.6v0.8H186.3z"/>
		<path class="st1" d="M203.4,235.5h-1l-3-4.8h-2.3v4.8h-0.8V225h3.6c1.6,0,2.9,1.3,2.9,2.9c0,1.5-1.1,2.6-2.5,2.8L203.4,235.5z
			 M199.8,229.8c1.2,0,2.1-0.9,2.1-2c0-1.2-0.9-2-2.1-2h-2.7v4H199.8z"/>
	</g>
	<g>
		<circle class="st0" cx="120.2" cy="75" r="75"/>
	</g>
	<g>
		<g>
			<path class="st2" d="M134.4,34.8c6.9,0,13.5,2.7,18.4,7.6c10.1,10.1,10.1,26.6,0,36.8c-4.9,4.9-11.4,7.6-18.4,7.6
				c-6.9,0-13.5-2.7-18.4-7.6c-10.1-10.1-10.1-26.6,0-36.8C120.9,37.5,127.4,34.8,134.4,34.8 M134.4,30.8c-7.7,0-15.4,2.9-21.2,8.8
				c-11.7,11.7-11.7,30.7,0,42.4c5.9,5.9,13.5,8.8,21.2,8.8c7.7,0,15.4-2.9,21.2-8.8c11.7-11.7,11.7-30.7,0-42.4
				C149.7,33.7,142.1,30.8,134.4,30.8L134.4,30.8z"/>
		</g>
		<g>
			<path class="st2" d="M106.1,63.1c6.9,0,13.5,2.7,18.4,7.6c10.1,10.1,10.1,26.6,0,36.8c-4.9,4.9-11.4,7.6-18.4,7.6
				c-6.9,0-13.5-2.7-18.4-7.6c-10.1-10.1-10.1-26.6,0-36.8C92.6,65.8,99.2,63.1,106.1,63.1 M106.1,59.1c-7.7,0-15.4,2.9-21.2,8.8
				c-11.7,11.7-11.7,30.7,0,42.4c5.9,5.9,13.5,8.8,21.2,8.8c7.7,0,15.4-2.9,21.2-8.8c11.7-11.7,11.7-30.7,0-42.4
				C121.5,62,113.8,59.1,106.1,59.1L106.1,59.1z"/>
		</g>
	</g>
</g>
</svg>
