<?xml version="1.0" encoding="utf-8"?>
<!-- Generator: Adobe Illustrator 16.0.0, SVG Export Plug-In . SVG Version: 6.00 Build 0)  -->
<!DOCTYPE svg PUBLIC "-//W3C//DTD SVG 1.1 Tiny//EN" "http://www.w3.org/Graphics/SVG/1.1/DTD/svg11-tiny.dtd">
<svg version="1.1" baseProfile="tiny" id="Layer_1" xmlns="http://www.w3.org/2000/svg" xmlns:xlink="http://www.w3.org/1999/xlink"
	 x="0px" y="0px" width="263.621px" height="263.621px" viewBox="0 0 263.621 263.621" xml:space="preserve">
<g>
	<path fill="#FFFFFF" d="M156.979,62.194c-12.068,0-23.411,4.698-31.944,13.23c-8.1,8.098-12.429,18.537-13.078,29.159
		c11.934,0.939,23.605,5.94,32.738,15.067c9.132,9.133,14.129,20.812,15.066,32.752c11.017-0.666,21.29-5.222,29.163-13.09
		c17.612-17.615,17.612-46.275,0-63.888C180.385,66.892,169.042,62.194,156.979,62.194z"/>
	<path fill="#FFFFFF" d="M105.051,111.472c-11.016,0.668-21.288,5.226-29.161,13.094c-17.612,17.613-17.612,46.271,0,63.888
		c8.535,8.53,19.877,13.23,31.943,13.23c12.068,0,23.411-4.7,31.94-13.23c8.098-8.102,12.429-18.537,13.077-29.158
		c-11.932-0.946-23.603-5.943-32.731-15.071C110.988,135.091,105.989,123.413,105.051,111.472z"/>
	<path fill="#FFFFFF" d="M152.784,152.338c-0.934-10.142-5.265-20.026-13.01-27.772c-7.534-7.535-17.266-12.07-27.749-13.026
		c0.931,10.14,5.264,20.023,13.012,27.772C132.571,146.845,142.302,151.38,152.784,152.338z"/>
	<path fill="#FFFFFF" d="M132.406,1.629c-71.968,0-130.311,58.342-130.311,130.31c0,71.968,58.342,130.31,130.311,130.31
		c71.967,0,130.31-58.342,130.31-130.31C262.715,59.971,204.373,1.629,132.406,1.629z M193.832,144.224
		c-9.455,9.455-21.633,14.46-34.011,15.131c-0.675,12.377-5.68,24.56-15.126,34.015c-10.186,10.181-23.521,15.267-36.861,15.267
		c-13.339,0-26.677-5.09-36.857-15.267c-20.354-20.356-20.354-53.362,0-73.715c9.457-9.455,21.638-14.458,34.013-15.131
		c0.672-12.374,5.678-24.558,15.13-34.013c10.181-10.176,23.518-15.264,36.859-15.264c13.345,0,26.677,5.088,36.857,15.264
		C214.189,90.865,214.189,123.868,193.832,144.224z"/>
</g>
</svg>
