<?xml version="1.0" encoding="utf-8"?>
<!-- Generator: Adobe Illustrator 16.0.0, SVG Export Plug-In . SVG Version: 6.00 Build 0)  -->
<!DOCTYPE svg PUBLIC "-//W3C//DTD SVG 1.1//EN" "http://www.w3.org/Graphics/SVG/1.1/DTD/svg11.dtd">
<svg version="1.1" id="Layer_1" xmlns="http://www.w3.org/2000/svg" xmlns:xlink="http://www.w3.org/1999/xlink" x="0px" y="0px"
	 width="206.898px" height="226.229px" viewBox="21.81 23.81 206.898 226.229" enable-background="new 21.81 23.81 206.898 226.229"
	 xml:space="preserve">
<g>
	<path fill="#FFFFFF" d="M63.81,191.207c0.912-0.191,2.352-0.336,3.816-0.336c2.088,0,3.432,0.359,4.44,1.176
		c0.84,0.625,1.344,1.584,1.344,2.855c0,1.561-1.032,2.93-2.736,3.553v0.049c1.536,0.383,3.336,1.656,3.336,4.057
		c0,1.393-0.552,2.447-1.368,3.24c-1.128,1.031-2.952,1.514-5.592,1.514c-1.44,0-2.544-0.098-3.24-0.193V191.207z M65.898,197.832
		h1.896c2.208,0,3.504-1.15,3.504-2.713c0-1.895-1.44-2.641-3.552-2.641c-0.96,0-1.512,0.072-1.849,0.145v5.209H65.898z
		 M65.898,205.583c0.408,0.072,1.008,0.098,1.752,0.098c2.16,0,4.152-0.793,4.152-3.146c0-2.207-1.896-3.119-4.176-3.119h-1.729
		v6.168H65.898z"/>
	<path fill="#FFFFFF" d="M79.434,202.08l-1.68,5.088h-2.16l5.497-16.178h2.52l5.521,16.178H86.9l-1.729-5.088H79.434z
		 M84.739,200.447l-1.584-4.656c-0.36-1.057-0.6-2.016-0.84-2.951h-0.049c-0.24,0.959-0.504,1.943-0.816,2.93l-1.584,4.678H84.739z"
		/>
	<path fill="#FFFFFF" d="M91.506,191.207c1.056-0.217,2.568-0.336,4.008-0.336c2.232,0,3.672,0.408,4.68,1.32
		c0.816,0.719,1.272,1.824,1.272,3.072c0,2.135-1.344,3.553-3.048,4.127v0.072c1.248,0.434,1.992,1.584,2.376,3.266
		c0.528,2.256,0.912,3.814,1.248,4.439h-2.16c-0.264-0.457-0.624-1.848-1.08-3.863c-0.48-2.232-1.344-3.072-3.24-3.146h-1.968v7.01
		h-2.088V191.207z M93.594,198.576h2.136c2.232,0,3.648-1.225,3.648-3.072c0-2.09-1.512-3-3.72-3.023
		c-1.008,0-1.728,0.096-2.064,0.191V198.576z"/>
	<path fill="#FFFFFF" d="M107.49,192.767h-4.92v-1.777h11.977v1.777h-4.944v14.4h-2.112L107.49,192.767L107.49,192.767z"/>
	<path fill="#FFFFFF" d="M121.145,204.623c0.936,0.576,2.304,1.059,3.744,1.059c2.136,0,3.384-1.129,3.384-2.762
		c0-1.512-0.864-2.377-3.048-3.217c-2.641-0.936-4.272-2.305-4.272-4.584c0-2.52,2.088-4.393,5.232-4.393
		c1.656,0,2.856,0.385,3.576,0.793l-0.576,1.703c-0.528-0.287-1.608-0.768-3.072-0.768c-2.208,0-3.048,1.32-3.048,2.424
		c0,1.512,0.984,2.256,3.216,3.119c2.736,1.057,4.128,2.377,4.128,4.754c0,2.496-1.848,4.656-5.665,4.656
		c-1.56,0-3.264-0.457-4.128-1.033L121.145,204.623z"/>
	<path fill="#FFFFFF" d="M133.264,207.167V190.99h2.28l5.185,8.186c1.2,1.896,2.136,3.6,2.904,5.256l0.048-0.023
		c-0.191-2.16-0.24-4.129-0.24-6.648v-6.77h1.969v16.178h-2.111l-5.137-8.209c-1.129-1.799-2.209-3.646-3.024-5.398l-0.071,0.023
		c0.119,2.039,0.168,3.984,0.168,6.672v6.912H133.264L133.264,207.167z"/>
	<path fill="#FFFFFF" d="M162.882,198.912c0,5.568-3.385,8.521-7.514,8.521c-4.271,0-7.271-3.312-7.271-8.209
		c0-5.137,3.191-8.496,7.514-8.496C160.025,190.726,162.882,194.111,162.882,198.912z M150.33,199.175
		c0,3.455,1.871,6.553,5.16,6.553c3.312,0,5.185-3.049,5.185-6.721c0-3.217-1.681-6.576-5.161-6.576
		C152.056,192.431,150.33,195.623,150.33,199.175z"/>
	<path fill="#FFFFFF" d="M173.969,199.583h-6.289v5.832h7.009v1.752h-9.097V190.99h8.735v1.752h-6.647v5.113h6.289V199.583
		L173.969,199.583z"/>
	<path fill="#FFFFFF" d="M177.4,190.99h2.088v7.801h0.072c0.432-0.623,0.864-1.199,1.271-1.729l4.945-6.072h2.592l-5.856,6.865
		l6.312,9.312h-2.472l-5.329-7.945L179.488,201v6.168H177.4V190.99L177.4,190.99z"/>
</g>
<g>
	<path fill="#FFFFFF" d="M28.256,243.167l-5.28-16.178h2.256l2.521,7.969c0.696,2.186,1.296,4.152,1.728,6.049h0.048
		c0.456-1.873,1.128-3.912,1.848-6.023l2.736-7.994h2.232l-5.785,16.178H28.256L28.256,243.167z"/>
	<path fill="#FFFFFF" d="M40.375,228.287c0.024,0.721-0.504,1.297-1.344,1.297c-0.744,0-1.272-0.576-1.272-1.297
		c0-0.744,0.552-1.32,1.32-1.32C39.871,226.966,40.375,227.542,40.375,228.287z M38.023,243.167V231.55h2.112v11.617H38.023z"/>
	<path fill="#FFFFFF" d="M43.351,241.007c0.624,0.408,1.728,0.84,2.784,0.84c1.536,0,2.256-0.768,2.256-1.729
		c0-1.008-0.6-1.561-2.16-2.137c-2.088-0.744-3.072-1.896-3.072-3.287c0-1.873,1.512-3.408,4.008-3.408
		c1.176,0,2.208,0.336,2.856,0.719l-0.528,1.537c-0.456-0.289-1.296-0.672-2.376-0.672c-1.248,0-1.944,0.721-1.944,1.584
		c0,0.961,0.696,1.393,2.208,1.969c2.016,0.768,3.048,1.775,3.048,3.504c0,2.039-1.584,3.48-4.345,3.48
		c-1.272,0-2.448-0.312-3.264-0.793L43.351,241.007z"/>
	<path fill="#FFFFFF" d="M62.864,240c0,1.199,0.024,2.256,0.096,3.168h-1.872l-0.12-1.895H60.92c-0.552,0.936-1.776,2.16-3.84,2.16
		c-1.824,0-4.008-1.01-4.008-5.09v-6.793h2.112v6.434c0,2.209,0.672,3.697,2.592,3.697c1.416,0,2.4-0.984,2.784-1.922
		c0.12-0.311,0.192-0.695,0.192-1.078v-7.131h2.112V240z"/>
	<path fill="#FFFFFF" d="M72.799,243.167l-0.168-1.465h-0.072c-0.648,0.912-1.896,1.729-3.552,1.729
		c-2.353,0-3.553-1.656-3.553-3.336c0-2.809,2.497-4.344,6.985-4.32v-0.24c0-0.959-0.264-2.688-2.64-2.688
		c-1.08,0-2.208,0.336-3.024,0.863l-0.48-1.393c0.96-0.623,2.352-1.031,3.816-1.031c3.552,0,4.417,2.424,4.417,4.752v4.344
		c0,1.01,0.048,1.992,0.192,2.785H72.799z M72.487,237.24c-2.304-0.049-4.92,0.359-4.92,2.615c0,1.369,0.912,2.018,1.992,2.018
		c1.512,0,2.472-0.961,2.808-1.945c0.072-0.215,0.12-0.455,0.12-0.672V237.24z"/>
	<path fill="#FFFFFF" d="M77.935,226.126h2.112v17.041h-2.112V226.126z"/>
	<path fill="#FFFFFF" d="M94.854,230.398v5.641h5.424v1.441h-5.424v5.688h-1.536v-5.688h-5.425v-1.441h5.425v-5.641H94.854z"/>
	<path fill="#FFFFFF" d="M110.238,226.99v9.578c0,3.623,1.608,5.16,3.769,5.16c2.4,0,3.937-1.584,3.937-5.16v-9.578h2.112v9.434
		c0,4.969-2.616,7.01-6.12,7.01c-3.312,0-5.809-1.896-5.809-6.912v-9.529h2.111V226.99z"/>
	<path fill="#FFFFFF" d="M132.535,243.167l-2.064-3.576c-0.84-1.367-1.368-2.256-1.872-3.191h-0.048
		c-0.456,0.936-0.912,1.799-1.752,3.215l-1.944,3.553h-2.4l4.944-8.184l-4.752-7.994h2.424l2.136,3.793
		c0.6,1.057,1.056,1.873,1.488,2.736h0.072c0.456-0.961,0.864-1.705,1.464-2.736l2.208-3.793h2.399l-4.919,7.873l5.041,8.305
		H132.535L132.535,243.167z"/>
	<path fill="#FFFFFF" d="M152.429,226.126v14.041c0,1.031,0.023,2.207,0.096,3h-1.896l-0.097-2.016h-0.047
		c-0.647,1.295-2.063,2.279-3.961,2.279c-2.809,0-4.969-2.377-4.969-5.904c-0.023-3.865,2.376-6.24,5.209-6.24
		c1.775,0,2.977,0.84,3.504,1.775h0.047v-6.938h2.113V226.126z M150.316,236.279c0-0.264-0.022-0.623-0.096-0.889
		c-0.311-1.344-1.463-2.447-3.047-2.447c-2.186,0-3.48,1.92-3.48,4.488c0,2.352,1.151,4.297,3.433,4.297
		c1.416,0,2.713-0.938,3.096-2.521c0.072-0.287,0.097-0.576,0.097-0.912v-2.016H150.316z"/>
	<path fill="#FFFFFF" d="M157.109,237.744c0.047,2.855,1.871,4.031,3.982,4.031c1.514,0,2.426-0.264,3.217-0.6l0.361,1.512
		c-0.744,0.336-2.018,0.721-3.865,0.721c-3.576,0-5.713-2.352-5.713-5.857c0-3.504,2.064-6.264,5.449-6.264
		c3.793,0,4.801,3.336,4.801,5.473c0,0.434-0.049,0.77-0.072,0.984H157.109L157.109,237.744z M163.301,236.232
		c0.022-1.346-0.554-3.434-2.929-3.434c-2.137,0-3.071,1.969-3.239,3.434H163.301z"/>
	<path fill="#FFFFFF" d="M167.668,241.007c0.625,0.408,1.729,0.84,2.784,0.84c1.535,0,2.257-0.768,2.257-1.729
		c0-1.008-0.601-1.561-2.16-2.137c-2.088-0.744-3.072-1.896-3.072-3.287c0-1.873,1.513-3.408,4.009-3.408
		c1.178,0,2.209,0.336,2.856,0.719l-0.529,1.537c-0.454-0.289-1.295-0.672-2.375-0.672c-1.247,0-1.944,0.721-1.944,1.584
		c0,0.961,0.697,1.393,2.209,1.969c2.016,0.768,3.049,1.775,3.049,3.504c0,2.039-1.584,3.48-4.346,3.48
		c-1.271,0-2.447-0.312-3.265-0.793L167.668,241.007z"/>
	<path fill="#FFFFFF" d="M179.812,228.287c0.023,0.721-0.504,1.297-1.344,1.297c-0.744,0-1.271-0.576-1.271-1.297
		c0-0.744,0.551-1.32,1.32-1.32C179.308,226.966,179.812,227.542,179.812,228.287z M177.461,243.167V231.55h2.11v11.617H177.461z"/>
	<path fill="#FFFFFF" d="M193.084,231.55c-0.048,0.84-0.097,1.775-0.097,3.191v6.746c0,2.664-0.526,4.295-1.656,5.305
		c-1.127,1.055-2.76,1.393-4.225,1.393c-1.391,0-2.928-0.338-3.863-0.961l0.527-1.607c0.768,0.479,1.969,0.912,3.408,0.912
		c2.16,0,3.744-1.129,3.744-4.057v-1.297h-0.047c-0.648,1.08-1.896,1.943-3.697,1.943c-2.879,0-4.943-2.447-4.943-5.664
		c0-3.936,2.568-6.168,5.232-6.168c2.016,0,3.119,1.057,3.623,2.016h0.049l0.096-1.752H193.084z M190.9,236.134
		c0-0.359-0.022-0.672-0.119-0.959c-0.385-1.225-1.416-2.232-2.953-2.232c-2.016,0-3.457,1.705-3.457,4.393
		c0,2.279,1.152,4.178,3.435,4.178c1.295,0,2.474-0.816,2.929-2.16c0.12-0.359,0.168-0.77,0.168-1.129v-2.09H190.9z"/>
	<path fill="#FFFFFF" d="M196.492,234.695c0-1.199-0.022-2.184-0.096-3.145h1.871l0.121,1.92h0.047
		c0.576-1.104,1.92-2.184,3.842-2.184c1.607,0,4.104,0.959,4.104,4.943v6.938h-2.111v-6.697c0-1.871-0.696-3.432-2.688-3.432
		c-1.394,0-2.473,0.984-2.832,2.16c-0.096,0.264-0.146,0.623-0.146,0.984v6.982h-2.11v-8.471H196.492z"/>
	<path fill="#FFFFFF" d="M210.988,237.744c0.047,2.855,1.871,4.031,3.982,4.031c1.514,0,2.426-0.264,3.217-0.6l0.361,1.512
		c-0.744,0.336-2.018,0.721-3.865,0.721c-3.576,0-5.713-2.352-5.713-5.857c0-3.504,2.064-6.264,5.449-6.264
		c3.793,0,4.801,3.336,4.801,5.473c0,0.434-0.049,0.77-0.072,0.984H210.988L210.988,237.744z M217.179,236.232
		c0.023-1.346-0.553-3.434-2.928-3.434c-2.137,0-3.072,1.969-3.24,3.434H217.179z"/>
	<path fill="#FFFFFF" d="M221.836,235.175c0-1.369-0.023-2.545-0.097-3.625h1.849l0.071,2.279h0.097
		c0.526-1.559,1.801-2.543,3.217-2.543c0.24,0,0.408,0.023,0.601,0.072v1.992c-0.217-0.051-0.433-0.072-0.722-0.072
		c-1.487,0-2.543,1.127-2.832,2.711c-0.047,0.289-0.096,0.625-0.096,0.984v6.191h-2.088V235.175L221.836,235.175z"/>
</g>
<g>
	<path fill="#FFFFFF" d="M136.719,51.825c-5.556,0-10.779,2.164-14.708,6.092c-3.729,3.729-5.722,8.535-6.021,13.426
		c5.495,0.433,10.869,2.735,15.073,6.938c4.206,4.205,6.506,9.583,6.939,15.081c5.071-0.308,9.802-2.406,13.426-6.029
		c8.11-8.11,8.11-21.306,0-29.416C147.498,53.989,142.275,51.825,136.719,51.825z"/>
	<path fill="#FFFFFF" d="M112.81,74.515c-5.072,0.308-9.801,2.406-13.426,6.029c-8.11,8.11-8.11,21.306,0,29.416
		c3.929,3.928,9.152,6.092,14.708,6.092s10.779-2.164,14.707-6.092c3.728-3.729,5.722-8.535,6.021-13.426
		c-5.494-0.434-10.868-2.736-15.071-6.938C115.544,85.391,113.242,80.013,112.81,74.515z"/>
	<path fill="#FFFFFF" d="M134.789,93.331c-0.43-4.669-2.424-9.22-5.99-12.787c-3.47-3.47-7.951-5.557-12.778-5.998
		c0.429,4.669,2.424,9.22,5.991,12.787C125.482,90.802,129.963,92.89,134.789,93.331z"/>
	<path fill="#FFFFFF" d="M125.405,23.939c-33.137,0-60,26.863-60,60s26.863,60,60,60c33.138,0,60.001-26.863,60.001-60
		S158.542,23.939,125.405,23.939z M153.688,89.596c-4.352,4.353-9.961,6.657-15.659,6.967c-0.311,5.698-2.615,11.308-6.966,15.661
		c-4.688,4.687-10.829,7.029-16.971,7.029s-12.284-2.343-16.971-7.029c-9.372-9.373-9.372-24.569,0-33.942
		c4.354-4.353,9.963-6.657,15.661-6.966c0.31-5.698,2.614-11.308,6.967-15.661c4.687-4.686,10.829-7.029,16.971-7.029
		c6.144,0,12.284,2.343,16.97,7.029C163.061,65.027,163.061,80.223,153.688,89.596z"/>
</g>
</svg>
