<?xml version="1.0" encoding="utf-8"?>
<!-- Generator: Adobe Illustrator 16.0.0, SVG Export Plug-In . SVG Version: 6.00 Build 0)  -->
<!DOCTYPE svg PUBLIC "-//W3C//DTD SVG 1.1 Tiny//EN" "http://www.w3.org/Graphics/SVG/1.1/DTD/svg11-tiny.dtd">
<svg version="1.1" baseProfile="tiny" id="Layer_1" xmlns="http://www.w3.org/2000/svg" xmlns:xlink="http://www.w3.org/1999/xlink"
	 x="0px" y="0px" width="263.62px" height="263.62px" viewBox="0 0 263.62 263.62" xml:space="preserve">
<g>
	<path fill="#FFFFFF" d="M64.944,193.061c0.912-0.192,2.352-0.336,3.816-0.336c2.088,0,3.432,0.359,4.44,1.176
		c0.84,0.624,1.344,1.584,1.344,2.855c0,1.561-1.032,2.929-2.736,3.553v0.049c1.536,0.383,3.336,1.655,3.336,4.056
		c0,1.392-0.552,2.448-1.368,3.24c-1.128,1.032-2.952,1.513-5.592,1.513c-1.44,0-2.544-0.097-3.24-0.192V193.061z M67.032,199.685
		h1.896c2.208,0,3.504-1.151,3.504-2.712c0-1.896-1.44-2.641-3.552-2.641c-0.96,0-1.512,0.072-1.849,0.145V199.685z M67.032,207.438
		c0.408,0.072,1.008,0.096,1.752,0.096c2.16,0,4.152-0.792,4.152-3.145c0-2.208-1.896-3.119-4.176-3.119h-1.729V207.438z"/>
	<path fill="#FFFFFF" d="M80.568,203.934l-1.68,5.088h-2.16l5.497-16.178h2.52l5.521,16.178h-2.232l-1.729-5.088H80.568z
		 M85.873,202.301l-1.584-4.656c-0.36-1.057-0.6-2.016-0.84-2.952H83.4c-0.24,0.96-0.504,1.944-0.816,2.929L81,202.301H85.873z"/>
	<path fill="#FFFFFF" d="M92.64,193.061c1.056-0.217,2.568-0.336,4.008-0.336c2.232,0,3.672,0.408,4.68,1.319
		c0.816,0.72,1.272,1.824,1.272,3.072c0,2.136-1.344,3.553-3.048,4.128v0.072c1.248,0.433,1.992,1.584,2.376,3.265
		c0.528,2.257,0.912,3.816,1.248,4.44h-2.16c-0.264-0.456-0.624-1.848-1.08-3.864c-0.48-2.232-1.344-3.072-3.24-3.145h-1.968v7.009
		H92.64V193.061z M94.728,200.429h2.136c2.232,0,3.648-1.224,3.648-3.072c0-2.089-1.512-3-3.72-3.024
		c-1.008,0-1.728,0.096-2.064,0.192V200.429z"/>
	<path fill="#FFFFFF" d="M108.624,194.62h-4.92v-1.776h11.977v1.776h-4.944v14.401h-2.112V194.62z"/>
	<path fill="#FFFFFF" d="M122.279,206.477c0.936,0.576,2.304,1.057,3.744,1.057c2.136,0,3.384-1.128,3.384-2.76
		c0-1.513-0.864-2.377-3.048-3.217c-2.641-0.936-4.272-2.305-4.272-4.584c0-2.521,2.088-4.393,5.232-4.393
		c1.656,0,2.856,0.384,3.576,0.792l-0.576,1.704c-0.528-0.288-1.608-0.768-3.072-0.768c-2.208,0-3.048,1.32-3.048,2.424
		c0,1.512,0.984,2.256,3.216,3.12c2.736,1.056,4.128,2.376,4.128,4.753c0,2.496-1.848,4.656-5.665,4.656
		c-1.56,0-3.264-0.456-4.128-1.032L122.279,206.477z"/>
	<path fill="#FFFFFF" d="M134.399,209.021v-16.178h2.28l5.185,8.186c1.2,1.896,2.136,3.6,2.904,5.256l0.048-0.023
		c-0.192-2.16-0.24-4.129-0.24-6.648v-6.77h1.968v16.178h-2.111l-5.137-8.209c-1.128-1.8-2.208-3.648-3.024-5.4l-0.072,0.024
		c0.12,2.04,0.168,3.984,0.168,6.673v6.912H134.399z"/>
	<path fill="#FFFFFF" d="M164.017,200.765c0,5.568-3.385,8.521-7.513,8.521c-4.272,0-7.272-3.312-7.272-8.209
		c0-5.136,3.192-8.496,7.513-8.496C161.16,192.58,164.017,195.965,164.017,200.765z M151.464,201.029
		c0,3.455,1.872,6.553,5.16,6.553c3.312,0,5.185-3.049,5.185-6.721c0-3.217-1.681-6.577-5.161-6.577
		C153.191,194.284,151.464,197.477,151.464,201.029z"/>
	<path fill="#FFFFFF" d="M175.104,201.438h-6.289v5.832h7.009v1.752h-9.097v-16.178h8.736v1.752h-6.648v5.113h6.289V201.438z"/>
	<path fill="#FFFFFF" d="M178.535,192.844h2.088v7.801h0.072c0.432-0.624,0.864-1.199,1.272-1.729l4.944-6.072h2.592l-5.856,6.865
		l6.312,9.312h-2.472l-5.329-7.945l-1.536,1.777v6.168h-2.088V192.844z"/>
</g>
<g>
	<path fill="#FFFFFF" d="M29.39,245.021l-5.28-16.178h2.256l2.521,7.969c0.696,2.185,1.296,4.152,1.728,6.049h0.048
		c0.456-1.872,1.128-3.912,1.848-6.024l2.736-7.993h2.232l-5.785,16.178H29.39z"/>
	<path fill="#FFFFFF" d="M41.51,230.141c0.024,0.72-0.504,1.296-1.344,1.296c-0.744,0-1.272-0.576-1.272-1.296
		c0-0.744,0.552-1.32,1.32-1.32C41.005,228.82,41.51,229.396,41.51,230.141z M39.157,245.021v-11.617h2.112v11.617H39.157z"/>
	<path fill="#FFFFFF" d="M44.485,242.861c0.624,0.408,1.728,0.84,2.784,0.84c1.536,0,2.256-0.768,2.256-1.729
		c0-1.008-0.6-1.56-2.16-2.136c-2.088-0.744-3.072-1.896-3.072-3.288c0-1.872,1.512-3.408,4.008-3.408
		c1.176,0,2.208,0.336,2.856,0.72l-0.528,1.536c-0.456-0.288-1.296-0.672-2.376-0.672c-1.248,0-1.944,0.721-1.944,1.584
		c0,0.961,0.696,1.393,2.208,1.969c2.016,0.768,3.048,1.775,3.048,3.504c0,2.04-1.584,3.48-4.345,3.48
		c-1.272,0-2.448-0.312-3.264-0.793L44.485,242.861z"/>
	<path fill="#FFFFFF" d="M63.998,241.854c0,1.199,0.024,2.256,0.096,3.168h-1.872l-0.12-1.896h-0.048
		c-0.552,0.937-1.776,2.16-3.84,2.16c-1.824,0-4.008-1.008-4.008-5.088v-6.793h2.112v6.433c0,2.208,0.672,3.696,2.592,3.696
		c1.416,0,2.4-0.984,2.784-1.92c0.12-0.312,0.192-0.696,0.192-1.08v-7.129h2.112V241.854z"/>
	<path fill="#FFFFFF" d="M73.933,245.021l-0.168-1.465h-0.072c-0.648,0.912-1.896,1.729-3.552,1.729
		c-2.353,0-3.553-1.656-3.553-3.336c0-2.809,2.497-4.344,6.985-4.32v-0.24c0-0.96-0.264-2.688-2.64-2.688
		c-1.08,0-2.208,0.336-3.024,0.863l-0.48-1.393c0.96-0.623,2.352-1.031,3.816-1.031c3.552,0,4.417,2.424,4.417,4.752v4.345
		c0,1.008,0.048,1.992,0.192,2.784H73.933z M73.621,239.093c-2.304-0.048-4.92,0.36-4.92,2.616c0,1.368,0.912,2.017,1.992,2.017
		c1.512,0,2.472-0.96,2.808-1.944c0.072-0.216,0.12-0.456,0.12-0.672V239.093z"/>
	<path fill="#FFFFFF" d="M79.069,227.98h2.112v17.041h-2.112V227.98z"/>
	<path fill="#FFFFFF" d="M95.989,232.252v5.641h5.424v1.44h-5.424v5.688h-1.536v-5.688h-5.425v-1.44h5.425v-5.641H95.989z"/>
	<path fill="#FFFFFF" d="M111.372,228.844v9.577c0,3.624,1.608,5.161,3.769,5.161c2.4,0,3.937-1.585,3.937-5.161v-9.577h2.112v9.434
		c0,4.968-2.616,7.008-6.12,7.008c-3.312,0-5.809-1.896-5.809-6.912v-9.529H111.372z"/>
	<path fill="#FFFFFF" d="M133.669,245.021l-2.064-3.576c-0.84-1.368-1.368-2.256-1.872-3.192h-0.048
		c-0.456,0.937-0.912,1.8-1.752,3.216l-1.944,3.553h-2.4l4.944-8.185l-4.752-7.993h2.424l2.136,3.793
		c0.6,1.056,1.056,1.872,1.488,2.736h0.072c0.456-0.961,0.864-1.705,1.464-2.736l2.208-3.793h2.4l-4.92,7.873l5.041,8.305H133.669z"
		/>
	<path fill="#FFFFFF" d="M153.564,227.98v14.041c0,1.031,0.023,2.208,0.096,3h-1.896l-0.096-2.016h-0.047
		c-0.648,1.295-2.064,2.279-3.961,2.279c-2.809,0-4.969-2.376-4.969-5.904c-0.023-3.864,2.376-6.24,5.209-6.24
		c1.775,0,2.977,0.84,3.504,1.775h0.047v-6.936H153.564z M151.451,238.133c0-0.264-0.023-0.624-0.096-0.889
		c-0.311-1.344-1.463-2.447-3.047-2.447c-2.186,0-3.48,1.92-3.48,4.488c0,2.352,1.151,4.297,3.432,4.297
		c1.416,0,2.713-0.937,3.096-2.521c0.072-0.287,0.096-0.576,0.096-0.912V238.133z"/>
	<path fill="#FFFFFF" d="M158.244,239.598c0.047,2.855,1.871,4.031,3.982,4.031c1.514,0,2.426-0.264,3.217-0.6l0.361,1.512
		c-0.744,0.336-2.018,0.721-3.865,0.721c-3.576,0-5.713-2.353-5.713-5.857c0-3.504,2.064-6.264,5.449-6.264
		c3.793,0,4.801,3.336,4.801,5.473c0,0.432-0.049,0.768-0.072,0.984H158.244z M164.436,238.085c0.023-1.345-0.553-3.433-2.928-3.433
		c-2.137,0-3.072,1.969-3.24,3.433H164.436z"/>
	<path fill="#FFFFFF" d="M168.803,242.861c0.625,0.408,1.729,0.84,2.785,0.84c1.535,0,2.256-0.768,2.256-1.729
		c0-1.008-0.6-1.56-2.16-2.136c-2.088-0.744-3.072-1.896-3.072-3.288c0-1.872,1.512-3.408,4.008-3.408
		c1.178,0,2.209,0.336,2.857,0.72l-0.529,1.536c-0.455-0.288-1.295-0.672-2.375-0.672c-1.248,0-1.945,0.721-1.945,1.584
		c0,0.961,0.697,1.393,2.209,1.969c2.016,0.768,3.049,1.775,3.049,3.504c0,2.04-1.584,3.48-4.346,3.48
		c-1.271,0-2.447-0.312-3.264-0.793L168.803,242.861z"/>
	<path fill="#FFFFFF" d="M180.947,230.141c0.023,0.72-0.504,1.296-1.344,1.296c-0.744,0-1.271-0.576-1.271-1.296
		c0-0.744,0.551-1.32,1.32-1.32C180.443,228.82,180.947,229.396,180.947,230.141z M178.596,245.021v-11.617h2.111v11.617H178.596z"
		/>
	<path fill="#FFFFFF" d="M194.219,233.404c-0.047,0.84-0.096,1.776-0.096,3.192v6.745c0,2.664-0.527,4.296-1.656,5.305
		c-1.127,1.055-2.76,1.392-4.225,1.392c-1.391,0-2.928-0.337-3.863-0.96l0.527-1.608c0.768,0.479,1.969,0.912,3.408,0.912
		c2.16,0,3.744-1.128,3.744-4.057v-1.296h-0.047c-0.648,1.08-1.896,1.944-3.697,1.944c-2.879,0-4.943-2.448-4.943-5.665
		c0-3.936,2.568-6.168,5.232-6.168c2.016,0,3.119,1.057,3.623,2.016h0.049l0.096-1.752H194.219z M192.035,237.988
		c0-0.359-0.023-0.672-0.119-0.959c-0.385-1.225-1.416-2.232-2.953-2.232c-2.016,0-3.457,1.704-3.457,4.393
		c0,2.279,1.152,4.176,3.434,4.176c1.295,0,2.473-0.816,2.928-2.16c0.121-0.359,0.168-0.768,0.168-1.128V237.988z"/>
	<path fill="#FFFFFF" d="M197.627,236.549c0-1.2-0.023-2.184-0.096-3.145h1.871l0.121,1.92h0.047
		c0.576-1.104,1.92-2.184,3.842-2.184c1.607,0,4.104,0.96,4.104,4.944v6.937h-2.111v-6.697c0-1.871-0.697-3.432-2.689-3.432
		c-1.393,0-2.473,0.984-2.832,2.16c-0.096,0.264-0.145,0.624-0.145,0.984v6.984h-2.111V236.549z"/>
	<path fill="#FFFFFF" d="M212.123,239.598c0.047,2.855,1.871,4.031,3.982,4.031c1.514,0,2.426-0.264,3.217-0.6l0.361,1.512
		c-0.744,0.336-2.018,0.721-3.865,0.721c-3.576,0-5.713-2.353-5.713-5.857c0-3.504,2.064-6.264,5.449-6.264
		c3.793,0,4.801,3.336,4.801,5.473c0,0.432-0.049,0.768-0.072,0.984H212.123z M218.314,238.085c0.023-1.345-0.553-3.433-2.928-3.433
		c-2.137,0-3.072,1.969-3.24,3.433H218.314z"/>
	<path fill="#FFFFFF" d="M222.971,237.029c0-1.369-0.023-2.545-0.096-3.625h1.848l0.072,2.28h0.096
		c0.527-1.56,1.801-2.544,3.217-2.544c0.24,0,0.408,0.023,0.6,0.072v1.992c-0.217-0.049-0.432-0.072-0.721-0.072
		c-1.488,0-2.543,1.128-2.832,2.712c-0.047,0.288-0.096,0.624-0.096,0.984v6.192h-2.088V237.029z"/>
</g>
<g>
	<path fill="#FFFFFF" d="M137.854,53.679c-5.556,0-10.78,2.164-14.708,6.092c-3.729,3.729-5.722,8.535-6.021,13.426
		c5.495,0.433,10.869,2.735,15.073,6.938c4.206,4.205,6.507,9.583,6.939,15.081c5.072-0.308,9.802-2.406,13.426-6.029
		c8.11-8.11,8.11-21.306,0-29.416C148.633,55.843,143.409,53.679,137.854,53.679z"/>
	<path fill="#FFFFFF" d="M113.944,76.369c-5.072,0.308-9.801,2.406-13.426,6.029c-8.11,8.11-8.11,21.306,0,29.416
		c3.929,3.928,9.152,6.092,14.708,6.092s10.779-2.164,14.707-6.092c3.729-3.729,5.723-8.535,6.022-13.426
		c-5.495-0.434-10.869-2.736-15.072-6.938C116.678,87.245,114.376,81.867,113.944,76.369z"/>
	<path fill="#FFFFFF" d="M135.924,95.185c-0.43-4.669-2.424-9.22-5.991-12.787c-3.47-3.47-7.951-5.557-12.778-5.998
		c0.429,4.669,2.424,9.22,5.991,12.787C126.616,92.656,131.097,94.744,135.924,95.185z"/>
	<path fill="#FFFFFF" d="M126.539,25.793c-33.137,0-60,26.863-60,60c0,33.137,26.863,60,60,60c33.138,0,60.001-26.863,60.001-60
		C186.54,52.656,159.677,25.793,126.539,25.793z M154.823,91.45c-4.352,4.353-9.961,6.657-15.659,6.967
		c-0.311,5.698-2.615,11.308-6.967,15.661c-4.688,4.687-10.829,7.029-16.971,7.029s-12.284-2.343-16.971-7.029
		c-9.372-9.373-9.372-24.569,0-33.942c4.354-4.353,9.963-6.657,15.661-6.966c0.31-5.698,2.614-11.308,6.967-15.661
		c4.687-4.686,10.829-7.029,16.971-7.029c6.143,0,12.284,2.343,16.97,7.029C164.196,66.881,164.196,82.077,154.823,91.45z"/>
</g>
<g>
</g>
<g>
</g>
<g>
</g>
<g>
</g>
<g>
</g>
<g>
</g>
</svg>
